<svg width="162" height="44" viewBox="0 0 162 44" fill="none" xmlns="http://www.w3.org/2000/svg">
<path d="M29 32C29.5523 32 30 31.5523 30 31C30 30.4477 29.5523 30 29 30C28.4477 30 28 30.4477 28 31C28 31.5523 28.4477 32 29 32Z" stroke="black" stroke-width="2" stroke-linecap="round" stroke-linejoin="round"/>
<path d="M40 32C40.5523 32 41 31.5523 41 31C41 30.4477 40.5523 30 40 30C39.4477 30 39 30.4477 39 31C39 31.5523 39.4477 32 40 32Z" stroke="black" stroke-width="2" stroke-linecap="round" stroke-linejoin="round"/>
<path d="M21 11H25L27.68 24.39C27.7714 24.8504 28.0219 25.264 28.3875 25.5583C28.7532 25.8526 29.2107 26.009 29.68 26H39.4C39.8693 26.009 40.3268 25.8526 40.6925 25.5583C41.0581 25.264 41.3086 24.8504 41.4 24.39L43 16H26" stroke="black" stroke-width="2" stroke-linecap="round" stroke-linejoin="round"/>
<path d="M70.098 19.5469H66.9872C66.9304 19.1444 66.8144 18.7869 66.6392 18.4744C66.464 18.1572 66.2391 17.8873 65.9645 17.6648C65.6899 17.4422 65.3726 17.2718 65.0128 17.1534C64.6577 17.035 64.2718 16.9759 63.8551 16.9759C63.1023 16.9759 62.4465 17.1629 61.8878 17.5369C61.3291 17.9062 60.8958 18.446 60.5881 19.1562C60.2803 19.8617 60.1264 20.7187 60.1264 21.7273C60.1264 22.7642 60.2803 23.6354 60.5881 24.3409C60.9006 25.0464 61.3362 25.5791 61.8949 25.9389C62.4536 26.2988 63.0999 26.4787 63.8338 26.4787C64.2457 26.4787 64.6269 26.4242 64.9773 26.3153C65.3324 26.2064 65.6473 26.0478 65.9219 25.8395C66.1965 25.6264 66.4238 25.3684 66.6037 25.0653C66.7884 24.7623 66.9162 24.4167 66.9872 24.0284L70.098 24.0426C70.0175 24.7102 69.8163 25.3542 69.4943 25.9744C69.1771 26.59 68.7486 27.1416 68.2088 27.6293C67.6738 28.1122 67.0346 28.4957 66.2912 28.7798C65.5526 29.0592 64.7169 29.1989 63.7841 29.1989C62.4867 29.1989 61.3267 28.9053 60.304 28.3182C59.286 27.7311 58.4811 26.8812 57.8892 25.7685C57.3021 24.6558 57.0085 23.3087 57.0085 21.7273C57.0085 20.1411 57.3068 18.7917 57.9034 17.679C58.5 16.5663 59.3097 15.7187 60.3324 15.1364C61.3551 14.5492 62.5057 14.2557 63.7841 14.2557C64.6269 14.2557 65.4081 14.3741 66.1278 14.6108C66.8523 14.8475 67.4938 15.1932 68.0526 15.6477C68.6113 16.0975 69.0658 16.6491 69.4162 17.3026C69.7713 17.956 69.9986 18.7041 70.098 19.5469ZM75.3572 29.206C74.6612 29.206 74.041 29.0852 73.4964 28.8438C72.9519 28.5975 72.5211 28.2353 72.2038 27.7571C71.8913 27.2741 71.7351 26.6728 71.7351 25.9531C71.7351 25.3471 71.8464 24.8381 72.0689 24.4261C72.2914 24.0142 72.5945 23.6828 72.978 23.4318C73.3615 23.1809 73.7971 22.9915 74.2848 22.8636C74.7772 22.7358 75.2933 22.6458 75.8331 22.5938C76.4676 22.5275 76.9789 22.4659 77.3672 22.4091C77.7554 22.3475 78.0372 22.2576 78.2124 22.1392C78.3875 22.0208 78.4751 21.8456 78.4751 21.6136V21.571C78.4751 21.1212 78.3331 20.7732 78.049 20.527C77.7696 20.2808 77.3719 20.1577 76.8558 20.1577C76.3113 20.1577 75.8781 20.2784 75.5561 20.5199C75.2341 20.7566 75.0211 21.0549 74.9169 21.4148L72.1186 21.1875C72.2607 20.5246 72.54 19.9517 72.9567 19.4688C73.3733 18.9811 73.9107 18.607 74.5689 18.3466C75.2318 18.0814 75.9988 17.9489 76.87 17.9489C77.4761 17.9489 78.0561 18.0199 78.6101 18.1619C79.1688 18.304 79.6636 18.5241 80.0945 18.8224C80.5301 19.1207 80.8733 19.5043 81.1243 19.973C81.3752 20.437 81.5007 20.9934 81.5007 21.642V29H78.6314V27.4872H78.5462C78.371 27.8281 78.1366 28.1288 77.843 28.3892C77.5495 28.6449 77.1967 28.8461 76.7848 28.9929C76.3729 29.1349 75.897 29.206 75.3572 29.206ZM76.2237 27.1179C76.6688 27.1179 77.0618 27.0303 77.4027 26.8551C77.7436 26.6752 78.0111 26.4337 78.2053 26.1307C78.3994 25.8277 78.4964 25.4844 78.4964 25.1009V23.9432C78.4018 24.0047 78.2715 24.0616 78.1058 24.1136C77.9448 24.161 77.7625 24.206 77.5589 24.2486C77.3554 24.2865 77.1518 24.322 76.9482 24.3551C76.7446 24.3835 76.5599 24.4096 76.3942 24.4332C76.0391 24.4853 75.7289 24.5682 75.4638 24.6818C75.1986 24.7955 74.9927 24.9493 74.8459 25.1435C74.6991 25.3329 74.6257 25.5696 74.6257 25.8537C74.6257 26.2656 74.7749 26.5805 75.0732 26.7983C75.3762 27.0114 75.7597 27.1179 76.2237 27.1179ZM83.848 29V18.0909H86.7812V19.9943H86.8949C87.0938 19.3172 87.4276 18.8059 87.8963 18.4602C88.3651 18.1098 88.9048 17.9347 89.5156 17.9347C89.6671 17.9347 89.8305 17.9441 90.0057 17.9631C90.1809 17.982 90.3348 18.008 90.4673 18.0412V20.7259C90.3253 20.6832 90.1288 20.6454 89.8778 20.6122C89.6269 20.5791 89.3973 20.5625 89.1889 20.5625C88.7438 20.5625 88.3461 20.6596 87.9957 20.8537C87.6501 21.0431 87.3755 21.3082 87.1719 21.6491C86.973 21.9901 86.8736 22.383 86.8736 22.8281V29H83.848ZM92.0316 29V18.0909H94.9648V19.9943H95.0785C95.2773 19.3172 95.6112 18.8059 96.0799 18.4602C96.5487 18.1098 97.0884 17.9347 97.6992 17.9347C97.8507 17.9347 98.0141 17.9441 98.1893 17.9631C98.3645 17.982 98.5183 18.008 98.6509 18.0412V20.7259C98.5089 20.6832 98.3124 20.6454 98.0614 20.6122C97.8105 20.5791 97.5808 20.5625 97.3725 20.5625C96.9274 20.5625 96.5297 20.6596 96.1793 20.8537C95.8337 21.0431 95.5591 21.3082 95.3555 21.6491C95.1566 21.9901 95.0572 22.383 95.0572 22.8281V29H92.0316ZM100.215 29V18.0909H103.241V29H100.215ZM101.735 16.6847C101.285 16.6847 100.899 16.5355 100.577 16.2372C100.26 15.9342 100.102 15.572 100.102 15.1506C100.102 14.7339 100.26 14.3764 100.577 14.0781C100.899 13.7751 101.285 13.6236 101.735 13.6236C102.185 13.6236 102.568 13.7751 102.886 14.0781C103.208 14.3764 103.369 14.7339 103.369 15.1506C103.369 15.572 103.208 15.9342 102.886 16.2372C102.568 16.5355 102.185 16.6847 101.735 16.6847ZM108.69 22.6932V29H105.664V18.0909H108.548V20.0156H108.676C108.917 19.3812 109.322 18.8793 109.89 18.5099C110.458 18.1359 111.147 17.9489 111.957 17.9489C112.715 17.9489 113.375 18.1146 113.939 18.446C114.502 18.7775 114.94 19.2509 115.252 19.8665C115.565 20.4773 115.721 21.2064 115.721 22.054V29H112.696V22.5938C112.7 21.9261 112.53 21.4053 112.184 21.0312C111.839 20.6525 111.363 20.4631 110.757 20.4631C110.35 20.4631 109.99 20.5507 109.677 20.7259C109.369 20.901 109.128 21.1567 108.953 21.4929C108.782 21.8243 108.695 22.2244 108.69 22.6932ZM121.131 22.6932V29H118.106V14.4545H121.046V20.0156H121.174C121.42 19.3717 121.818 18.8674 122.367 18.5028C122.916 18.1335 123.605 17.9489 124.434 17.9489C125.192 17.9489 125.852 18.1146 126.415 18.446C126.984 18.7727 127.424 19.2438 127.737 19.8594C128.054 20.4702 128.21 21.2017 128.205 22.054V29H125.18V22.5938C125.184 21.9214 125.014 21.3982 124.668 21.0241C124.327 20.6501 123.849 20.4631 123.234 20.4631C122.822 20.4631 122.457 20.5507 122.14 20.7259C121.827 20.901 121.581 21.1567 121.401 21.4929C121.226 21.8243 121.136 22.2244 121.131 22.6932ZM135.515 29.2131C134.412 29.2131 133.458 28.9787 132.653 28.5099C131.853 28.0365 131.235 27.3783 130.799 26.5355C130.364 25.688 130.146 24.7055 130.146 23.5881C130.146 22.4612 130.364 21.4763 130.799 20.6335C131.235 19.786 131.853 19.1278 132.653 18.6591C133.458 18.1856 134.412 17.9489 135.515 17.9489C136.618 17.9489 137.57 18.1856 138.37 18.6591C139.175 19.1278 139.796 19.786 140.231 20.6335C140.667 21.4763 140.885 22.4612 140.885 23.5881C140.885 24.7055 140.667 25.688 140.231 26.5355C139.796 27.3783 139.175 28.0365 138.37 28.5099C137.57 28.9787 136.618 29.2131 135.515 29.2131ZM135.529 26.8693C136.031 26.8693 136.45 26.7273 136.787 26.4432C137.123 26.1544 137.376 25.7614 137.547 25.2642C137.722 24.767 137.809 24.2012 137.809 23.5668C137.809 22.9323 137.722 22.3665 137.547 21.8693C137.376 21.3722 137.123 20.9792 136.787 20.6903C136.45 20.4015 136.031 20.2571 135.529 20.2571C135.023 20.2571 134.597 20.4015 134.251 20.6903C133.91 20.9792 133.652 21.3722 133.477 21.8693C133.306 22.3665 133.221 22.9323 133.221 23.5668C133.221 24.2012 133.306 24.767 133.477 25.2642C133.652 25.7614 133.91 26.1544 134.251 26.4432C134.597 26.7273 135.023 26.8693 135.529 26.8693Z" fill="#000000"/>
</svg>
