<svg width="204" height="64" viewBox="0 0 204 64" fill="none" xmlns="http://www.w3.org/2000/svg">
    <rect x="1" y="1" width="202" height="62" rx="19" stroke="black" stroke-opacity="0.05" stroke-width="2"/>
    <path d="M23 29L32 22L41 29V40C41 40.5304 40.7893 41.0391 40.4142 41.4142C40.0391 41.7893 39.5304 42 39 42H25C24.4696 42 23.9609 41.7893 23.5858 41.4142C23.2107 41.0391 23 40.5304 23 40V29Z" stroke="black" stroke-width="2" stroke-linecap="round" stroke-linejoin="round"/>
    <path d="M29 42V32H35V42" stroke="black" stroke-width="2" stroke-linecap="round" stroke-linejoin="round"/>
    <path d="M78.098 29.5469H74.9872C74.9304 29.1444 74.8144 28.7869 74.6392 28.4744C74.464 28.1572 74.2391 27.8873 73.9645 27.6648C73.6899 27.4422 73.3726 27.2718 73.0128 27.1534C72.6577 27.035 72.2718 26.9759 71.8551 26.9759C71.1023 26.9759 70.4465 27.1629 69.8878 27.5369C69.3291 27.9062 68.8958 28.446 68.5881 29.1562C68.2803 29.8617 68.1264 30.7187 68.1264 31.7273C68.1264 32.7642 68.2803 33.6354 68.5881 34.3409C68.9006 35.0464 69.3362 35.5791 69.8949 35.9389C70.4536 36.2988 71.0999 36.4787 71.8338 36.4787C72.2457 36.4787 72.6269 36.4242 72.9773 36.3153C73.3324 36.2064 73.6473 36.0478 73.9219 35.8395C74.1965 35.6264 74.4238 35.3684 74.6037 35.0653C74.7884 34.7623 74.9162 34.4167 74.9872 34.0284L78.098 34.0426C78.0175 34.7102 77.8163 35.3542 77.4943 35.9744C77.1771 36.59 76.7486 37.1416 76.2088 37.6293C75.6738 38.1122 75.0346 38.4957 74.2912 38.7798C73.5526 39.0592 72.7169 39.1989 71.7841 39.1989C70.4867 39.1989 69.3267 38.9053 68.304 38.3182C67.286 37.7311 66.4811 36.8812 65.8892 35.7685C65.3021 34.6558 65.0085 33.3087 65.0085 31.7273C65.0085 30.1411 65.3068 28.7917 65.9034 27.679C66.5 26.5663 67.3097 25.7187 68.3324 25.1364C69.3551 24.5492 70.5057 24.2557 71.7841 24.2557C72.6269 24.2557 73.4081 24.3741 74.1278 24.6108C74.8523 24.8475 75.4938 25.1932 76.0526 25.6477C76.6113 26.0975 77.0658 26.6491 77.4162 27.3026C77.7713 27.956 77.9986 28.7041 78.098 29.5469ZM85.218 39.2131C84.0959 39.2131 83.13 38.9858 82.3203 38.5312C81.5154 38.072 80.8951 37.4233 80.4595 36.5852C80.0239 35.7424 79.8061 34.7457 79.8061 33.5952C79.8061 32.473 80.0239 31.4882 80.4595 30.6406C80.8951 29.7931 81.5083 29.1326 82.299 28.6591C83.0945 28.1856 84.0272 27.9489 85.0973 27.9489C85.817 27.9489 86.487 28.0649 87.1072 28.2969C87.7322 28.5241 88.2768 28.8674 88.7408 29.3267C89.2095 29.786 89.5741 30.3636 89.8345 31.0597C90.0949 31.7509 90.2251 32.5606 90.2251 33.4886V34.3196H81.0135V32.4446H87.3771C87.3771 32.009 87.2824 31.6231 87.093 31.2869C86.9036 30.9508 86.6409 30.688 86.3047 30.4986C85.9732 30.3045 85.5874 30.2074 85.147 30.2074C84.6877 30.2074 84.2805 30.3139 83.9254 30.527C83.575 30.7353 83.3004 31.017 83.1016 31.3722C82.9027 31.7225 82.8009 32.1132 82.7962 32.544V34.3267C82.7962 34.8665 82.8956 35.3329 83.0945 35.7259C83.2981 36.1188 83.5845 36.4219 83.9538 36.6349C84.3232 36.848 84.7611 36.9545 85.2678 36.9545C85.6039 36.9545 85.9117 36.9072 86.1911 36.8125C86.4704 36.7178 86.7095 36.5758 86.9084 36.3864C87.1072 36.197 87.2588 35.965 87.3629 35.6903L90.1612 35.875C90.0192 36.5473 89.728 37.1345 89.2876 37.6364C88.852 38.1335 88.2886 38.5218 87.5973 38.8011C86.9107 39.0758 86.1177 39.2131 85.218 39.2131ZM96.2195 39.1776C95.3909 39.1776 94.6404 38.9645 93.968 38.5384C93.3004 38.1075 92.7701 37.4754 92.3771 36.642C91.9889 35.804 91.7947 34.7765 91.7947 33.5597C91.7947 32.3097 91.996 31.2704 92.3984 30.4418C92.8009 29.6084 93.3359 28.9858 94.0036 28.5739C94.6759 28.1572 95.4122 27.9489 96.2124 27.9489C96.8232 27.9489 97.3321 28.053 97.7393 28.2614C98.1513 28.465 98.4827 28.7206 98.7337 29.0284C98.9893 29.3314 99.1835 29.6297 99.3161 29.9233H99.4084V24.4545H102.427V39H99.4439V37.2528H99.3161C99.174 37.5559 98.9728 37.8565 98.7124 38.1548C98.4567 38.4484 98.1229 38.6922 97.7109 38.8864C97.3037 39.0805 96.8066 39.1776 96.2195 39.1776ZM97.1783 36.7699C97.666 36.7699 98.0779 36.6373 98.4141 36.3722C98.755 36.1023 99.0154 35.7259 99.1953 35.2429C99.38 34.7599 99.4723 34.1941 99.4723 33.5455C99.4723 32.8968 99.3823 32.3333 99.2024 31.8551C99.0225 31.3769 98.7621 31.0076 98.4212 30.7472C98.0803 30.4867 97.666 30.3565 97.1783 30.3565C96.6811 30.3565 96.2621 30.4915 95.9212 30.7614C95.5803 31.0312 95.3222 31.4053 95.147 31.8835C94.9718 32.3617 94.8842 32.9157 94.8842 33.5455C94.8842 34.1799 94.9718 34.741 95.147 35.2287C95.3269 35.7116 95.585 36.0904 95.9212 36.3651C96.2621 36.6349 96.6811 36.7699 97.1783 36.7699ZM111.91 34.3551V28.0909H114.936V39H112.031V37.0185H111.917C111.671 37.6577 111.261 38.1714 110.689 38.5597C110.12 38.9479 109.427 39.142 108.608 39.142C107.878 39.142 107.237 38.9763 106.683 38.6449C106.129 38.3134 105.696 37.8423 105.383 37.2315C105.075 36.6207 104.919 35.8892 104.914 35.0369V28.0909H107.94V34.4972C107.945 35.1411 108.118 35.6501 108.458 36.0241C108.799 36.3982 109.256 36.5852 109.829 36.5852C110.194 36.5852 110.535 36.5024 110.852 36.3366C111.169 36.1662 111.425 35.9152 111.619 35.5838C111.818 35.2524 111.915 34.8428 111.91 34.3551ZM117.356 43.0909V28.0909H120.339V29.9233H120.474C120.606 29.6297 120.798 29.3314 121.049 29.0284C121.305 28.7206 121.636 28.465 122.043 28.2614C122.455 28.053 122.967 27.9489 123.577 27.9489C124.373 27.9489 125.107 28.1572 125.779 28.5739C126.451 28.9858 126.989 29.6084 127.391 30.4418C127.794 31.2704 127.995 32.3097 127.995 33.5597C127.995 34.7765 127.799 35.804 127.406 36.642C127.017 37.4754 126.487 38.1075 125.815 38.5384C125.147 38.9645 124.399 39.1776 123.57 39.1776C122.983 39.1776 122.484 39.0805 122.072 38.8864C121.665 38.6922 121.331 38.4484 121.07 38.1548C120.81 37.8565 120.611 37.5559 120.474 37.2528H120.381V43.0909H117.356ZM120.317 33.5455C120.317 34.1941 120.407 34.7599 120.587 35.2429C120.767 35.7259 121.028 36.1023 121.369 36.3722C121.71 36.6373 122.124 36.7699 122.612 36.7699C123.104 36.7699 123.521 36.6349 123.862 36.3651C124.202 36.0904 124.46 35.7116 124.636 35.2287C124.816 34.741 124.906 34.1799 124.906 33.5455C124.906 32.9157 124.818 32.3617 124.643 31.8835C124.468 31.4053 124.21 31.0312 123.869 30.7614C123.528 30.4915 123.109 30.3565 122.612 30.3565C122.119 30.3565 121.702 30.4867 121.362 30.7472C121.025 31.0076 120.767 31.3769 120.587 31.8551C120.407 32.3333 120.317 32.8968 120.317 33.5455ZM142.588 28.6378C142.532 28.0649 142.288 27.6198 141.857 27.3026C141.426 26.9853 140.841 26.8267 140.103 26.8267C139.601 26.8267 139.177 26.8977 138.831 27.0398C138.486 27.1771 138.221 27.3688 138.036 27.6151C137.856 27.8613 137.766 28.1406 137.766 28.4531C137.757 28.7135 137.811 28.9408 137.929 29.1349C138.052 29.3291 138.221 29.4972 138.434 29.6392C138.647 29.7765 138.893 29.8973 139.172 30.0014C139.452 30.1009 139.75 30.1861 140.067 30.2571L141.374 30.5696C142.008 30.7116 142.591 30.901 143.121 31.1378C143.651 31.3745 144.111 31.6657 144.499 32.0114C144.887 32.357 145.188 32.7642 145.401 33.233C145.619 33.7017 145.73 34.2391 145.735 34.8452C145.73 35.7353 145.503 36.5071 145.053 37.1605C144.608 37.8092 143.964 38.3134 143.121 38.6733C142.283 39.0284 141.272 39.206 140.088 39.206C138.914 39.206 137.891 39.026 137.02 38.6662C136.154 38.3063 135.477 37.7737 134.989 37.0682C134.506 36.358 134.253 35.4796 134.229 34.4332H137.205C137.238 34.9209 137.378 35.3281 137.624 35.6548C137.875 35.9768 138.209 36.2206 138.625 36.3864C139.047 36.5473 139.523 36.6278 140.053 36.6278C140.574 36.6278 141.026 36.5521 141.409 36.4006C141.798 36.2491 142.098 36.0384 142.311 35.7685C142.525 35.4986 142.631 35.1884 142.631 34.8381C142.631 34.5114 142.534 34.2367 142.34 34.0142C142.15 33.7917 141.871 33.6023 141.502 33.446C141.137 33.2898 140.69 33.1477 140.159 33.0199L138.576 32.6222C137.349 32.3239 136.381 31.8575 135.671 31.223C134.961 30.5885 134.608 29.7339 134.613 28.6591C134.608 27.7784 134.842 27.009 135.316 26.3509C135.794 25.6927 136.45 25.179 137.283 24.8097C138.116 24.4403 139.063 24.2557 140.124 24.2557C141.203 24.2557 142.146 24.4403 142.951 24.8097C143.76 25.179 144.39 25.6927 144.84 26.3509C145.29 27.009 145.522 27.7713 145.536 28.6378H142.588ZM150.772 32.6932V39H147.746V24.4545H150.687V30.0156H150.815C151.061 29.3717 151.459 28.8674 152.008 28.5028C152.557 28.1335 153.246 27.9489 154.075 27.9489C154.832 27.9489 155.493 28.1146 156.056 28.446C156.624 28.7727 157.065 29.2438 157.377 29.8594C157.694 30.4702 157.851 31.2017 157.846 32.054V39H154.82V32.5938C154.825 31.9214 154.655 31.3982 154.309 31.0241C153.968 30.6501 153.49 30.4631 152.874 30.4631C152.462 30.4631 152.098 30.5507 151.781 30.7259C151.468 30.901 151.222 31.1567 151.042 31.4929C150.867 31.8243 150.777 32.2244 150.772 32.6932ZM165.156 39.2131C164.053 39.2131 163.099 38.9787 162.294 38.5099C161.493 38.0365 160.876 37.3783 160.44 36.5355C160.004 35.688 159.787 34.7055 159.787 33.5881C159.787 32.4612 160.004 31.4763 160.44 30.6335C160.876 29.786 161.493 29.1278 162.294 28.6591C163.099 28.1856 164.053 27.9489 165.156 27.9489C166.259 27.9489 167.211 28.1856 168.011 28.6591C168.816 29.1278 169.436 29.786 169.872 30.6335C170.307 31.4763 170.525 32.4612 170.525 33.5881C170.525 34.7055 170.307 35.688 169.872 36.5355C169.436 37.3783 168.816 38.0365 168.011 38.5099C167.211 38.9787 166.259 39.2131 165.156 39.2131ZM165.17 36.8693C165.672 36.8693 166.091 36.7273 166.427 36.4432C166.763 36.1544 167.017 35.7614 167.187 35.2642C167.362 34.767 167.45 34.2012 167.45 33.5668C167.45 32.9323 167.362 32.3665 167.187 31.8693C167.017 31.3722 166.763 30.9792 166.427 30.6903C166.091 30.4015 165.672 30.2571 165.17 30.2571C164.663 30.2571 164.237 30.4015 163.892 30.6903C163.551 30.9792 163.293 31.3722 163.118 31.8693C162.947 32.3665 162.862 32.9323 162.862 33.5668C162.862 34.2012 162.947 34.767 163.118 35.2642C163.293 35.7614 163.551 36.1544 163.892 36.4432C164.237 36.7273 164.663 36.8693 165.17 36.8693ZM172.493 43.0909V28.0909H175.475V29.9233H175.61C175.743 29.6297 175.935 29.3314 176.186 29.0284C176.441 28.7206 176.773 28.465 177.18 28.2614C177.592 28.053 178.103 27.9489 178.714 27.9489C179.51 27.9489 180.243 28.1572 180.916 28.5739C181.588 28.9858 182.126 29.6084 182.528 30.4418C182.931 31.2704 183.132 32.3097 183.132 33.5597C183.132 34.7765 182.935 35.804 182.542 36.642C182.154 37.4754 181.624 38.1075 180.951 38.5384C180.284 38.9645 179.536 39.1776 178.707 39.1776C178.12 39.1776 177.62 39.0805 177.208 38.8864C176.801 38.6922 176.467 38.4484 176.207 38.1548C175.947 37.8565 175.748 37.5559 175.61 37.2528H175.518V43.0909H172.493ZM175.454 33.5455C175.454 34.1941 175.544 34.7599 175.724 35.2429C175.904 35.7259 176.164 36.1023 176.505 36.3722C176.846 36.6373 177.261 36.7699 177.748 36.7699C178.241 36.7699 178.657 36.6349 178.998 36.3651C179.339 36.0904 179.597 35.7116 179.772 35.2287C179.952 34.741 180.042 34.1799 180.042 33.5455C180.042 32.9157 179.955 32.3617 179.779 31.8835C179.604 31.4053 179.346 31.0312 179.005 30.7614C178.664 30.4915 178.245 30.3565 177.748 30.3565C177.256 30.3565 176.839 30.4867 176.498 30.7472C176.162 31.0076 175.904 31.3769 175.724 31.8551C175.544 32.3333 175.454 32.8968 175.454 33.5455Z" fill="black"/>
    </svg>
    